<svg width="60" height="60" viewBox="0 0 100 100" fill="none" xmlns="http://www.w3.org/2000/svg">
  <!-- Briefcase Body -->
  <rect x="15" y="30" width="70" height="50" rx="8" fill="#4A5568"/>
  
  <!-- Briefcase Handle -->
  <path d="M35 30 V 20 C 35 15 40 10 45 10 H 55 C 60 10 65 15 65 20 V 30" stroke="#4A5568" stroke-width="8" fill="none" stroke-linecap="round"/>
  
  <!-- Gear Icon -->
  <g transform="translate(50 55) scale(0.25)">
    <path d="M49.53,27.4,44.3,29.83A2.49,2.49,0,0,1,40,28.25l-2.4-4.15a2.5,2.5,0,0,1,1.58-4.31l5.23-2.43a2.5,2.5,0,0,1,3.34,1.58l2.4,4.15A2.5,2.5,0,0,1,49.53,27.4Z" fill="#CBD5E0"/>
    <path d="M27.4,50.47,29.83,45.24a2.49,2.49,0,0,1,1.58-4.31l4.15-2.4a2.5,2.5,0,0,1,4.31,1.58l2.43,5.23a2.5,2.5,0,0,1-1.58,3.34l-4.15,2.4A2.5,2.5,0,0,1,27.4,50.47Z" fill="#CBD5E0"/>
    <path d="M22.6,29.83,17.37,27.4a2.49,2.49,0,0,1-1.58-3.34l2.4-4.15a2.5,2.5,0,0,1,4.31,1.58l2.43,5.23A2.5,2.5,0,0,1,22.6,29.83Z" fill="#CBD5E0"/>
    <path d="M50.47,22.6,45.24,17.37a2.49,2.49,0,0,1-1.58-3.34l2.4-4.15a2.5,2.5,0,0,1,3.34,1.58l4.15,2.4A2.5,2.5,0,0,1,50.47,22.6Z" fill="#CBD5E0"/>
    <path d="M29.83,22.6,27.4,17.37a2.49,2.49,0,0,1,3.34-1.58l4.15,2.4a2.5,2.5,0,0,1,1.58,4.31l-2.4,4.15A2.5,2.5,0,0,1,29.83,22.6Z" fill="#CBD5E0"/>
    <path d="M22.6,50.47,17.37,45.24a2.49,2.49,0,0,1,1.58-4.31l5.23-2.43a2.5,2.5,0,0,1,3.34,1.58l2.4,4.15A2.5,2.5,0,0,1,22.6,50.47Z" fill="#CBD5E0"/>
    <path d="M45.24,50.47,40,48.07a2.49,2.49,0,0,1-1.58-4.31l4.15-2.4a2.5,2.5,0,0,1,4.31,1.58l2.43,5.23A2.5,2.5,0,0,1,45.24,50.47Z" fill="#CBD5E0"/>
    <path d="M17.37,45.24,12.14,42.81a2.49,2.49,0,0,1-1.58-3.34l4.15-2.4a2.5,2.5,0,0,1,4.31,1.58l2.43,5.23A2.5,2.5,0,0,1,17.37,45.24Z" fill="#CBD5E0"/>
    <circle cx="35" cy="35" r="10" fill="#A0AEC0"/>
  </g>
</svg>